<svg width="628" height="226" viewBox="0 0 628 226" fill="none" xmlns="http://www.w3.org/2000/svg">
<g filter="url(#filter0_dd_3_254)">
<rect x="99.3018" y="74.3018" width="399.396" height="49.3965" rx="7.69824" fill="#0E101C"/>
<rect x="99.3018" y="74.3018" width="399.396" height="49.3965" rx="7.69824" stroke="url(#paint0_linear_3_254)" stroke-width="0.603527" stroke-linejoin="round"/>
<path opacity="0.93" d="M228.136 95.5008H224.702C224.639 95.0566 224.511 94.6619 224.318 94.3169C224.124 93.9667 223.876 93.6688 223.573 93.4231C223.27 93.1775 222.919 92.9893 222.522 92.8586C222.13 92.7279 221.704 92.6626 221.244 92.6626C220.413 92.6626 219.689 92.8691 219.072 93.282C218.455 93.6897 217.977 94.2856 217.637 95.0696C217.298 95.8484 217.128 96.7945 217.128 97.9079C217.128 99.0526 217.298 100.014 217.637 100.793C217.982 101.572 218.463 102.16 219.08 102.557C219.697 102.955 220.41 103.153 221.221 103.153C221.675 103.153 222.096 103.093 222.483 102.973C222.875 102.853 223.222 102.677 223.526 102.448C223.829 102.212 224.08 101.927 224.278 101.593C224.482 101.258 224.623 100.877 224.702 100.448L228.136 100.464C228.047 101.201 227.825 101.912 227.469 102.596C227.119 103.276 226.646 103.885 226.05 104.423C225.46 104.956 224.754 105.38 223.933 105.693C223.118 106.002 222.195 106.156 221.166 106.156C219.733 106.156 218.453 105.832 217.324 105.184C216.2 104.536 215.311 103.597 214.658 102.369C214.01 101.141 213.686 99.6537 213.686 97.9079C213.686 96.1568 214.015 94.6671 214.674 93.4388C215.332 92.2105 216.226 91.2748 217.355 90.6319C218.484 89.9838 219.754 89.6597 221.166 89.6597C222.096 89.6597 222.958 89.7904 223.753 90.0517C224.553 90.3131 225.261 90.6946 225.878 91.1964C226.495 91.693 226.996 92.3019 227.383 93.0233C227.775 93.7446 228.026 94.5704 228.136 95.5008ZM235.949 106.172C234.731 106.172 233.678 105.913 232.789 105.396C231.906 104.873 231.224 104.146 230.743 103.216C230.262 102.28 230.021 101.196 230.021 99.9621C230.021 98.7181 230.262 97.6308 230.743 96.7004C231.224 95.7648 231.906 95.0383 232.789 94.5208C233.678 93.9981 234.731 93.7367 235.949 93.7367C237.167 93.7367 238.217 93.9981 239.101 94.5208C239.989 95.0383 240.674 95.7648 241.155 96.7004C241.636 97.6308 241.876 98.7181 241.876 99.9621C241.876 101.196 241.636 102.28 241.155 103.216C240.674 104.146 239.989 104.873 239.101 105.396C238.217 105.913 237.167 106.172 235.949 106.172ZM235.965 103.584C236.519 103.584 236.981 103.428 237.352 103.114C237.723 102.795 238.003 102.361 238.191 101.812C238.385 101.264 238.481 100.639 238.481 99.9386C238.481 99.2381 238.385 98.6135 238.191 98.0647C238.003 97.5158 237.723 97.082 237.352 96.7632C236.981 96.4443 236.519 96.2849 235.965 96.2849C235.405 96.2849 234.935 96.4443 234.553 96.7632C234.177 97.082 233.892 97.5158 233.699 98.0647C233.51 98.6135 233.416 99.2381 233.416 99.9386C233.416 100.639 233.51 101.264 233.699 101.812C233.892 102.361 234.177 102.795 234.553 103.114C234.935 103.428 235.405 103.584 235.965 103.584ZM247.388 98.9742V105.937H244.048V93.8935H247.231V96.0183H247.372C247.639 95.3179 248.086 94.7638 248.713 94.3561C249.34 93.9432 250.101 93.7367 250.995 93.7367C251.831 93.7367 252.56 93.9197 253.182 94.2856C253.804 94.6515 254.288 95.1742 254.633 95.8537C254.978 96.5279 255.15 97.3329 255.15 98.2685V105.937H251.81V98.8644C251.815 98.1274 251.627 97.5524 251.246 97.1395C250.864 96.7213 250.339 96.5123 249.67 96.5123C249.22 96.5123 248.823 96.609 248.478 96.8024C248.138 96.9958 247.872 97.278 247.678 97.6491C247.49 98.015 247.393 98.4567 247.388 98.9742ZM261.123 98.9742V105.937H257.783V93.8935H260.966V96.0183H261.107C261.374 95.3179 261.82 94.7638 262.448 94.3561C263.075 93.9432 263.835 93.7367 264.729 93.7367C265.566 93.7367 266.295 93.9197 266.917 94.2856C267.539 94.6515 268.022 95.1742 268.367 95.8537C268.712 96.5279 268.885 97.3329 268.885 98.2685V105.937H265.545V98.8644C265.55 98.1274 265.362 97.5524 264.98 97.1395C264.599 96.7213 264.073 96.5123 263.404 96.5123C262.955 96.5123 262.557 96.609 262.213 96.8024C261.873 96.9958 261.606 97.278 261.413 97.6491C261.225 98.015 261.128 98.4567 261.123 98.9742ZM277.006 106.172C275.767 106.172 274.7 105.921 273.807 105.419C272.918 104.912 272.233 104.196 271.752 103.271C271.272 102.34 271.031 101.24 271.031 99.9699C271.031 98.7311 271.272 97.6439 271.752 96.7083C272.233 95.7727 272.91 95.0435 273.783 94.5208C274.661 93.9981 275.691 93.7367 276.872 93.7367C277.667 93.7367 278.406 93.8648 279.091 94.1209C279.781 94.3718 280.382 94.7508 280.894 95.2578C281.412 95.7648 281.814 96.4025 282.102 97.1709C282.389 97.934 282.533 98.8278 282.533 99.8523V100.77H272.364V98.6998H279.389C279.389 98.2189 279.284 97.7929 279.075 97.4218C278.866 97.0506 278.576 96.7605 278.205 96.5515C277.839 96.3372 277.413 96.23 276.927 96.23C276.42 96.23 275.971 96.3476 275.579 96.5828C275.192 96.8128 274.889 97.1238 274.669 97.5158C274.45 97.9026 274.337 98.3339 274.332 98.8095V100.777C274.332 101.373 274.442 101.888 274.661 102.322C274.886 102.756 275.202 103.09 275.61 103.326C276.018 103.561 276.501 103.678 277.06 103.678C277.432 103.678 277.771 103.626 278.08 103.522C278.388 103.417 278.652 103.26 278.872 103.051C279.091 102.842 279.258 102.586 279.373 102.283L282.463 102.487C282.306 103.229 281.984 103.877 281.498 104.431C281.017 104.98 280.395 105.409 279.632 105.717C278.874 106.02 277.999 106.172 277.006 106.172ZM290.154 106.172C288.92 106.172 287.859 105.91 286.971 105.388C286.087 104.86 285.408 104.128 284.932 103.192C284.462 102.257 284.227 101.18 284.227 99.9621C284.227 98.7285 284.464 97.6465 284.94 96.7161C285.421 95.7805 286.103 95.0513 286.986 94.5286C287.87 94.0007 288.92 93.7367 290.138 93.7367C291.189 93.7367 292.109 93.9275 292.898 94.3091C293.687 94.6907 294.312 95.2264 294.772 95.9164C295.232 96.6064 295.486 97.4165 295.533 98.3469H292.381C292.292 97.7458 292.057 97.2623 291.675 96.8965C291.299 96.5253 290.805 96.3398 290.193 96.3398C289.676 96.3398 289.224 96.4809 288.837 96.7632C288.455 97.0402 288.157 97.4453 287.943 97.9784C287.729 98.5116 287.622 99.1571 287.622 99.915C287.622 100.683 287.726 101.337 287.935 101.875C288.149 102.414 288.45 102.824 288.837 103.106C289.224 103.388 289.676 103.529 290.193 103.529C290.575 103.529 290.917 103.451 291.22 103.294C291.529 103.137 291.782 102.91 291.981 102.612C292.185 102.309 292.318 101.946 292.381 101.522H295.533C295.48 102.442 295.229 103.252 294.78 103.953C294.336 104.648 293.721 105.192 292.937 105.584C292.153 105.976 291.226 106.172 290.154 106.172ZM304.077 93.8935V96.4025H296.824V93.8935H304.077ZM298.471 91.0083H301.811V102.236C301.811 102.544 301.858 102.785 301.952 102.957C302.046 103.124 302.177 103.242 302.344 103.31C302.516 103.378 302.715 103.412 302.94 103.412C303.097 103.412 303.253 103.399 303.41 103.373C303.567 103.341 303.687 103.318 303.771 103.302L304.296 105.788C304.129 105.84 303.894 105.9 303.591 105.968C303.287 106.041 302.919 106.085 302.485 106.101C301.68 106.133 300.975 106.025 300.368 105.78C299.767 105.534 299.299 105.152 298.965 104.635C298.63 104.118 298.466 103.464 298.471 102.675V91.0083ZM315.04 105.937L310.445 89.8792H314.154L316.812 101.036H316.945L319.877 89.8792H323.053L325.977 101.06H326.118L328.776 89.8792H332.485L327.89 105.937H324.582L321.524 95.4381H321.398L318.348 105.937H315.04ZM336.38 106.164C335.611 106.164 334.926 106.031 334.325 105.764C333.724 105.492 333.249 105.092 332.898 104.564C332.553 104.031 332.381 103.367 332.381 102.573C332.381 101.904 332.504 101.342 332.749 100.887C332.995 100.433 333.33 100.067 333.753 99.7896C334.176 99.5126 334.657 99.3035 335.196 99.1624C335.739 99.0212 336.309 98.9219 336.905 98.8644C337.605 98.7912 338.17 98.7233 338.598 98.6606C339.027 98.5926 339.338 98.4933 339.531 98.3626C339.725 98.2319 339.821 98.0385 339.821 97.7824V97.7354C339.821 97.2388 339.665 96.8546 339.351 96.5828C339.043 96.311 338.604 96.1751 338.034 96.1751C337.433 96.1751 336.954 96.3084 336.599 96.575C336.244 96.8363 336.008 97.1656 335.893 97.5629L332.804 97.312C332.961 96.5802 333.269 95.9478 333.729 95.4146C334.189 94.8762 334.783 94.4633 335.509 94.1758C336.241 93.8831 337.088 93.7367 338.05 93.7367C338.719 93.7367 339.359 93.8151 339.97 93.972C340.587 94.1288 341.133 94.3718 341.609 94.7011C342.09 95.0304 342.469 95.4538 342.746 95.9713C343.023 96.4835 343.162 97.0977 343.162 97.8138V105.937H339.994V104.267H339.9C339.706 104.643 339.448 104.975 339.124 105.262C338.8 105.544 338.41 105.767 337.955 105.929C337.501 106.085 336.975 106.164 336.38 106.164ZM337.336 103.859C337.827 103.859 338.261 103.762 338.638 103.569C339.014 103.37 339.309 103.103 339.524 102.769C339.738 102.434 339.845 102.055 339.845 101.632V100.354C339.74 100.422 339.597 100.485 339.414 100.542C339.236 100.595 339.035 100.644 338.81 100.691C338.585 100.733 338.361 100.772 338.136 100.809C337.911 100.84 337.707 100.869 337.524 100.895C337.132 100.953 336.79 101.044 336.497 101.17C336.204 101.295 335.977 101.465 335.815 101.679C335.653 101.888 335.572 102.15 335.572 102.463C335.572 102.918 335.737 103.266 336.066 103.506C336.4 103.741 336.824 103.859 337.336 103.859ZM349.093 89.8792V105.937H345.753V89.8792H349.093ZM355.108 89.8792V105.937H351.768V89.8792H355.108ZM363.272 106.172C362.034 106.172 360.967 105.921 360.073 105.419C359.185 104.912 358.5 104.196 358.019 103.271C357.538 102.34 357.298 101.24 357.298 99.9699C357.298 98.7311 357.538 97.6439 358.019 96.7083C358.5 95.7727 359.177 95.0435 360.05 94.5208C360.928 93.9981 361.958 93.7367 363.139 93.7367C363.934 93.7367 364.673 93.8648 365.358 94.1209C366.048 94.3718 366.649 94.7508 367.161 95.2578C367.679 95.7648 368.081 96.4025 368.369 97.1709C368.656 97.934 368.8 98.8278 368.8 99.8523V100.77H358.631V98.6998H365.656C365.656 98.2189 365.551 97.7929 365.342 97.4218C365.133 97.0506 364.843 96.7605 364.472 96.5515C364.106 96.3372 363.68 96.23 363.194 96.23C362.687 96.23 362.237 96.3476 361.845 96.5828C361.459 96.8128 361.155 97.1238 360.936 97.5158C360.716 97.9026 360.604 98.3339 360.599 98.8095V100.777C360.599 101.373 360.709 101.888 360.928 102.322C361.153 102.756 361.469 103.09 361.877 103.326C362.284 103.561 362.768 103.678 363.327 103.678C363.698 103.678 364.038 103.626 364.347 103.522C364.655 103.417 364.919 103.26 365.138 103.051C365.358 102.842 365.525 102.586 365.64 102.283L368.729 102.487C368.573 103.229 368.251 103.877 367.765 104.431C367.284 104.98 366.662 105.409 365.899 105.717C365.141 106.02 364.265 106.172 363.272 106.172ZM377.385 93.8935V96.4025H370.133V93.8935H377.385ZM371.779 91.0083H375.119V102.236C375.119 102.544 375.166 102.785 375.26 102.957C375.355 103.124 375.485 103.242 375.652 103.31C375.825 103.378 376.024 103.412 376.248 103.412C376.405 103.412 376.562 103.399 376.719 103.373C376.876 103.341 376.996 103.318 377.079 103.302L377.605 105.788C377.437 105.84 377.202 105.9 376.899 105.968C376.596 106.041 376.227 106.085 375.794 106.101C374.989 106.133 374.283 106.025 373.677 105.78C373.076 105.534 372.608 105.152 372.273 104.635C371.939 104.118 371.774 103.464 371.779 102.675V91.0083Z" fill="white"/>
</g>
<defs>
<filter id="filter0_dd_3_254" x="0.171143" y="-52.1645" width="627.096" height="277.622" filterUnits="userSpaceOnUse" color-interpolation-filters="sRGB">
<feFlood flood-opacity="0" result="BackgroundImageFix"/>
<feColorMatrix in="SourceAlpha" type="matrix" values="0 0 0 0 0 0 0 0 0 0 0 0 0 0 0 0 0 0 127 0" result="hardAlpha"/>
<feOffset dx="-14.7192" dy="17.3476"/>
<feGaussianBlur stdDeviation="42.0548"/>
<feComposite in2="hardAlpha" operator="out"/>
<feColorMatrix type="matrix" values="0 0 0 0 0 0 0 0 0 0.22 0 0 0 0 1 0 0 0 0.3 0"/>
<feBlend mode="normal" in2="BackgroundImageFix" result="effect1_dropShadow_3_254"/>
<feColorMatrix in="SourceAlpha" type="matrix" values="0 0 0 0 0 0 0 0 0 0 0 0 0 0 0 0 0 0 127 0" result="hardAlpha"/>
<feOffset dx="15.7706" dy="-13.6678"/>
<feGaussianBlur stdDeviation="56.2483"/>
<feComposite in2="hardAlpha" operator="out"/>
<feColorMatrix type="matrix" values="0 0 0 0 0.970833 0 0 0 0 0 0 0 0 0 0.233 0 0 0 0.3 0"/>
<feBlend mode="normal" in2="effect1_dropShadow_3_254" result="effect2_dropShadow_3_254"/>
<feBlend mode="normal" in="SourceGraphic" in2="effect2_dropShadow_3_254" result="shape"/>
</filter>
<linearGradient id="paint0_linear_3_254" x1="513.354" y1="65.4773" x2="497.412" y2="179.947" gradientUnits="userSpaceOnUse">
<stop stop-color="#FF2CF7"/>
<stop offset="0.203125" stop-color="#FB047B" stop-opacity="0.796875"/>
<stop offset="0.369792" stop-color="#FF7EBC" stop-opacity="0.81"/>
<stop offset="0.578125" stop-color="white" stop-opacity="0"/>
<stop offset="0.727396" stop-color="#49FFE9" stop-opacity="0.65"/>
<stop offset="1" stop-color="#130EFF"/>
</linearGradient>
</defs>
</svg>
