<svg xmlns="http://www.w3.org/2000/svg" xmlns:xlink="http://www.w3.org/1999/xlink" width="100" zoomAndPan="magnify" viewBox="0 0 75 30.000001" height="40" preserveAspectRatio="xMidYMid meet" version="1.0"><defs><g/><clipPath id="ee91d40333"><path d="M 51.042969 5.636719 L 68.460938 5.636719 L 68.460938 22.332031 L 51.042969 22.332031 Z M 51.042969 5.636719 " clip-rule="nonzero"/></clipPath></defs><g fill="#ffffff" fill-opacity="1"><g transform="translate(6.885094, 19.341725)"><g><path d="M 5.671875 -8.625 C 4.847656 -8.625 4.207031 -8.316406 3.75 -7.703125 C 3.300781 -7.085938 3.078125 -6.226562 3.078125 -5.125 C 3.078125 -2.820312 3.941406 -1.671875 5.671875 -1.671875 C 6.390625 -1.671875 7.265625 -1.851562 8.296875 -2.21875 L 8.296875 -0.390625 C 7.453125 -0.0351562 6.507812 0.140625 5.46875 0.140625 C 3.96875 0.140625 2.820312 -0.3125 2.03125 -1.21875 C 1.238281 -2.125 0.84375 -3.429688 0.84375 -5.140625 C 0.84375 -6.203125 1.035156 -7.132812 1.421875 -7.9375 C 1.804688 -8.75 2.363281 -9.367188 3.09375 -9.796875 C 3.832031 -10.222656 4.691406 -10.4375 5.671875 -10.4375 C 6.671875 -10.4375 7.675781 -10.195312 8.6875 -9.71875 L 7.984375 -7.9375 C 7.597656 -8.125 7.207031 -8.285156 6.8125 -8.421875 C 6.425781 -8.554688 6.046875 -8.625 5.671875 -8.625 Z M 5.671875 -8.625 "/></g></g></g><g fill="#ffffff" fill-opacity="1"><g transform="translate(16.072849, 19.341725)"><g><path d="M 7.59375 0 L 6.859375 -2.453125 L 3.09375 -2.453125 L 2.359375 0 L 0 0 L 3.640625 -10.34375 L 6.296875 -10.34375 L 9.953125 0 Z M 6.328125 -4.28125 C 5.640625 -6.5 5.25 -7.753906 5.15625 -8.046875 C 5.070312 -8.335938 5.015625 -8.566406 4.984375 -8.734375 C 4.828125 -8.140625 4.378906 -6.65625 3.640625 -4.28125 Z M 6.328125 -4.28125 "/></g></g></g><g fill="#ffffff" fill-opacity="1"><g transform="translate(26.020969, 19.341725)"><g><path d="M 3.484375 -5.71875 L 4.1875 -5.71875 C 4.875 -5.71875 5.378906 -5.832031 5.703125 -6.0625 C 6.035156 -6.300781 6.203125 -6.664062 6.203125 -7.15625 C 6.203125 -7.644531 6.035156 -7.988281 5.703125 -8.1875 C 5.367188 -8.394531 4.847656 -8.5 4.140625 -8.5 L 3.484375 -8.5 Z M 3.484375 -3.953125 L 3.484375 0 L 1.296875 0 L 1.296875 -10.296875 L 4.296875 -10.296875 C 5.691406 -10.296875 6.722656 -10.039062 7.390625 -9.53125 C 8.066406 -9.019531 8.40625 -8.25 8.40625 -7.21875 C 8.40625 -6.601562 8.238281 -6.0625 7.90625 -5.59375 C 7.570312 -5.125 7.101562 -4.753906 6.5 -4.484375 C 8.039062 -2.171875 9.046875 -0.675781 9.515625 0 L 7.09375 0 L 4.640625 -3.953125 Z M 3.484375 -3.953125 "/></g></g></g><g fill="#ffffff" fill-opacity="1"><g transform="translate(35.539615, 19.341725)"><g><path d="M 9.84375 -5.25 C 9.84375 -3.550781 9.359375 -2.25 8.390625 -1.34375 C 7.421875 -0.445312 6.03125 0 4.21875 0 L 1.296875 0 L 1.296875 -10.296875 L 4.53125 -10.296875 C 6.207031 -10.296875 7.507812 -9.851562 8.4375 -8.96875 C 9.375 -8.082031 9.84375 -6.84375 9.84375 -5.25 Z M 7.5625 -5.1875 C 7.5625 -7.394531 6.585938 -8.5 4.640625 -8.5 L 3.484375 -8.5 L 3.484375 -1.796875 L 4.421875 -1.796875 C 6.515625 -1.796875 7.5625 -2.925781 7.5625 -5.1875 Z M 7.5625 -5.1875 "/></g></g></g><g clip-path="url(#ee91d40333)"><path fill="#ffffff" d="M 67.664062 13.347656 L 67.203125 14.03125 L 57.246094 7.324219 L 57.707031 6.640625 C 57.917969 6.328125 58.34375 6.242188 58.65625 6.453125 L 67.476562 12.394531 C 67.792969 12.605469 67.875 13.035156 67.664062 13.347656 Z M 64.457031 18.109375 L 64.960938 14.503906 L 66.285156 15.394531 Z M 63.519531 21.242188 C 63.464844 21.613281 63.121094 21.878906 62.746094 21.824219 L 52.210938 20.347656 C 51.839844 20.296875 51.574219 19.949219 51.628906 19.574219 L 52.273438 14.957031 L 64.167969 16.625 Z M 52.617188 12.515625 C 52.671875 12.140625 53.015625 11.878906 53.390625 11.933594 L 63.925781 13.410156 C 64.300781 13.460938 64.5625 13.808594 64.507812 14.183594 L 64.394531 14.996094 L 52.503906 13.332031 Z M 56.328125 8.6875 L 62.25 12.675781 L 54.382812 11.570312 Z M 67.753906 11.988281 L 58.933594 6.046875 C 58.394531 5.683594 57.660156 5.824219 57.296875 6.363281 L 53.839844 11.496094 L 53.460938 11.445312 C 52.816406 11.351562 52.21875 11.804688 52.128906 12.449219 L 51.140625 19.503906 C 51.050781 20.148438 51.5 20.746094 52.144531 20.835938 L 62.675781 22.3125 C 63.320312 22.402344 63.917969 21.953125 64.007812 21.308594 L 64.300781 19.226562 L 68.074219 13.621094 C 68.4375 13.085938 68.292969 12.351562 67.753906 11.988281 " fill-opacity="1" fill-rule="nonzero"/></g><path fill="#ffffff" d="M 57.960938 17.042969 L 63.039062 17.753906 L 63.097656 17.351562 L 58.019531 16.640625 L 57.960938 17.042969 " fill-opacity="1" fill-rule="nonzero"/><path fill="#ffffff" d="M 57.839844 17.914062 L 62.917969 18.625 L 62.972656 18.21875 L 57.894531 17.507812 L 57.839844 17.914062 " fill-opacity="1" fill-rule="nonzero"/></svg>